<svg id="barcode" width="178px" height="142px" x="0px" y="0px" viewBox="0 0 178 142" xmlns="http://www.w3.org/2000/svg" version="1.1" style="transform: translate(0px, 0px);"><rect x="0" y="0" width="178" height="142" style="fill:#ffffff;"/><g transform="translate(10, 10)" style="fill:#000000;"><rect x="0" y="0" width="4" height="100"/><rect x="6" y="0" width="2" height="100"/><rect x="12" y="0" width="2" height="100"/><rect x="22" y="0" width="8" height="100"/><rect x="32" y="0" width="6" height="100"/><rect x="40" y="0" width="2" height="100"/><rect x="44" y="0" width="2" height="100"/><rect x="54" y="0" width="2" height="100"/><rect x="58" y="0" width="4" height="100"/><rect x="66" y="0" width="2" height="100"/><rect x="72" y="0" width="4" height="100"/><rect x="78" y="0" width="6" height="100"/><rect x="88" y="0" width="2" height="100"/><rect x="92" y="0" width="8" height="100"/><rect x="104" y="0" width="2" height="100"/><rect x="110" y="0" width="2" height="100"/><rect x="120" y="0" width="2" height="100"/><rect x="126" y="0" width="4" height="100"/><rect x="132" y="0" width="4" height="100"/><rect x="142" y="0" width="6" height="100"/><rect x="150" y="0" width="2" height="100"/><rect x="154" y="0" width="4" height="100"/><text style="font: 20px monospace" text-anchor="middle" x="79" y="122">mc-s</text></g></svg>