<svg id="barcode" width="244px" height="142px" x="0px" y="0px" viewBox="0 0 244 142" xmlns="http://www.w3.org/2000/svg" version="1.1" style="transform: translate(0px, 0px);"><rect x="0" y="0" width="244" height="142" style="fill:#ffffff;"/><g transform="translate(10, 10)" style="fill:#000000;"><rect x="0" y="0" width="4" height="100"/><rect x="6" y="0" width="2" height="100"/><rect x="12" y="0" width="2" height="100"/><rect x="22" y="0" width="2" height="100"/><rect x="26" y="0" width="8" height="100"/><rect x="38" y="0" width="2" height="100"/><rect x="44" y="0" width="2" height="100"/><rect x="50" y="0" width="8" height="100"/><rect x="60" y="0" width="2" height="100"/><rect x="66" y="0" width="2" height="100"/><rect x="72" y="0" width="2" height="100"/><rect x="76" y="0" width="4" height="100"/><rect x="88" y="0" width="2" height="100"/><rect x="94" y="0" width="2" height="100"/><rect x="100" y="0" width="8" height="100"/><rect x="110" y="0" width="2" height="100"/><rect x="116" y="0" width="8" height="100"/><rect x="126" y="0" width="2" height="100"/><rect x="132" y="0" width="2" height="100"/><rect x="138" y="0" width="4" height="100"/><rect x="144" y="0" width="6" height="100"/><rect x="154" y="0" width="2" height="100"/><rect x="160" y="0" width="2" height="100"/><rect x="170" y="0" width="4" height="100"/><rect x="176" y="0" width="8" height="100"/><rect x="188" y="0" width="2" height="100"/><rect x="192" y="0" width="2" height="100"/><rect x="198" y="0" width="4" height="100"/><rect x="208" y="0" width="6" height="100"/><rect x="216" y="0" width="2" height="100"/><rect x="220" y="0" width="4" height="100"/><text style="font: 20px monospace" text-anchor="middle" x="112" y="122">start-b</text></g></svg>